<svg role="img"
    xmlns="http://www.w3.org/2000/svg" viewBox="0 0 512 512" style="-webkit-filter: drop-shadow(2px 2px 2px rgba(0, 0, 0, 0.2));
    enable-background: new 0 0 512 512 !important;
    " width="500" height="500">

    <svg aria-hidden="true" focusable="false" data-prefix="fas" data-icon="dice-one" class="svg-inline--fa fa-dice-one fa-w-14" role="img"
      y="30"
      width="100"
    xmlns="http://www.w3.org/2000/svg" viewBox="0 0 448 512">
        <path fill="#546e7a" d="M384 32H64C28.65 32 0 60.65 0 96v320c0 35.35 28.65 64 64 64h320c35.35 0 64-28.65 64-64V96c0-35.35-28.65-64-64-64zM224 288c-17.67 0-32-14.33-32-32s14.33-32 32-32 32 14.33 32 32-14.33 32-32 32z"></path>
    </svg>
    <svg aria-hidden="true" focusable="false" data-prefix="fas" data-icon="dice-five" class="svg-inline--fa fa-dice-five fa-w-14" role="img"
        xmlns="http://www.w3.org/2000/svg" viewBox="0 0 448 512">
        <path fill="#546e7a" d="M384 32H64C28.65 32 0 60.65 0 96v320c0 35.35 28.65 64 64 64h320c35.35 0 64-28.65 64-64V96c0-35.35-28.65-64-64-64zM128 384c-17.67 0-32-14.33-32-32s14.33-32 32-32 32 14.33 32 32-14.33 32-32 32zm0-192c-17.67 0-32-14.33-32-32s14.33-32 32-32 32 14.33 32 32-14.33 32-32 32zm96 96c-17.67 0-32-14.33-32-32s14.33-32 32-32 32 14.33 32 32-14.33 32-32 32zm96 96c-17.67 0-32-14.33-32-32s14.33-32 32-32 32 14.33 32 32-14.33 32-32 32zm0-192c-17.67 0-32-14.33-32-32s14.33-32 32-32 32 14.33 32 32-14.33 32-32 32z"></path>
    </svg>
    <svg aria-hidden="true" focusable="false" data-prefix="fas" data-icon="dice-three" class="svg-inline--fa fa-dice-three fa-w-14" role="img"
        xmlns="http://www.w3.org/2000/svg" viewBox="0 0 448 512">
        <path fill="#546e7a" d="M384 32H64C28.65 32 0 60.65 0 96v320c0 35.35 28.65 64 64 64h320c35.35 0 64-28.65 64-64V96c0-35.35-28.65-64-64-64zM128 192c-17.67 0-32-14.33-32-32s14.33-32 32-32 32 14.33 32 32-14.33 32-32 32zm96 96c-17.67 0-32-14.33-32-32s14.33-32 32-32 32 14.33 32 32-14.33 32-32 32zm96 96c-17.67 0-32-14.33-32-32s14.33-32 32-32 32 14.33 32 32-14.33 32-32 32z"></path>
    </svg>
   <svg aria-hidden="true" focusable="false" data-prefix="fas" data-icon="dice-six" class="svg-inline--fa fa-dice-six fa-w-14" role="img"
        xmlns="http://www.w3.org/2000/svg" viewBox="0 0 448 512">
        <path fill="#546e7a" d="M384 32H64C28.65 32 0 60.65 0 96v320c0 35.35 28.65 64 64 64h320c35.35 0 64-28.65 64-64V96c0-35.35-28.65-64-64-64zM128 384c-17.67 0-32-14.33-32-32s14.33-32 32-32 32 14.33 32 32-14.33 32-32 32zm0-96c-17.67 0-32-14.33-32-32s14.33-32 32-32 32 14.33 32 32-14.33 32-32 32zm0-96c-17.67 0-32-14.33-32-32s14.33-32 32-32 32 14.33 32 32-14.33 32-32 32zm192 192c-17.67 0-32-14.33-32-32s14.33-32 32-32 32 14.33 32 32-14.33 32-32 32zm0-96c-17.67 0-32-14.33-32-32s14.33-32 32-32 32 14.33 32 32-14.33 32-32 32zm0-96c-17.67 0-32-14.33-32-32s14.33-32 32-32 32 14.33 32 32-14.33 32-32 32z"></path>
    </svg>
</svg>